<svg width="100" height="100" viewBox="0 0 100 100" fill="none" xmlns="http://www.w3.org/2000/svg">
<path d="M43.0547 91.0843C44.5551 91.3388 46.0822 91.5123 47.6312 91.6003L47.6087 92.1028L48.1082 92.1251C48.7356 92.1532 49.3664 92.1673 50.0003 92.1673C50.6342 92.1673 51.265 92.1532 51.8923 92.1251L52.3918 92.1028L52.3694 91.6003C53.9184 91.5123 55.4455 91.3388 56.9459 91.0843L57.036 91.5792L57.528 91.4896C58.7762 91.2623 60.0057 90.9796 61.2139 90.6441L61.6956 90.5103L61.561 90.0256C63.0435 89.5945 64.4926 89.0827 65.9031 88.4955L66.1021 88.9575L66.5613 88.7597C67.723 88.2595 68.8582 87.7085 69.9639 87.1095L70.4035 86.8713L70.1639 86.4291C71.5085 85.6796 72.808 84.858 74.0569 83.9693L74.3534 84.3756L74.7573 84.081C75.7768 83.3372 76.762 82.5489 77.71 81.7191L78.0863 81.3898L77.755 81.0113C78.8986 79.9861 79.9857 78.899 81.0109 77.7553L81.3894 78.0866L81.7187 77.7104C82.5485 76.7624 83.3368 75.7772 84.0806 74.7577L84.3753 74.3538L83.969 74.0573C84.8576 72.8084 85.6793 71.5089 86.4287 70.1643L86.871 70.4039L87.1091 69.9643C87.7081 68.8585 88.2592 67.7234 88.7594 66.5617L88.9571 66.1024L88.4951 65.9035C89.0824 64.493 89.5941 63.0439 90.0252 61.5614L90.5099 61.696L90.6437 61.2142C90.9792 60.0061 91.2619 58.7765 91.4893 57.5283L91.5788 57.0364L91.0839 56.9463C91.3384 55.4458 91.512 53.9187 91.5999 52.3697L92.1024 52.3922L92.1247 51.8927C92.1528 51.2653 92.167 50.6346 92.167 50.0007C92.167 49.3668 92.1528 48.736 92.1247 48.1086L92.1024 47.6091L91.5999 47.6316C91.512 46.0826 91.3384 44.5555 91.084 43.055L91.5788 42.9649L91.4893 42.473C91.262 41.2248 90.9792 39.9952 90.6437 38.7871L90.5099 38.3053L90.0252 38.4399C89.5941 36.9574 89.0824 35.5083 88.4951 34.0978L88.9571 33.8989L88.7594 33.4396C88.2592 32.2779 87.7081 31.1428 87.1091 30.0371L86.871 29.5974L86.4287 29.837C85.6793 28.4924 84.8576 27.1929 83.969 25.944L84.3753 25.6476L84.0806 25.2436C83.3368 24.2241 82.5485 23.2389 81.7187 22.2909L81.3894 21.9147L81.0109 22.246C79.9857 21.1023 78.8986 20.0152 77.755 18.99L78.0863 18.6115L77.71 18.2822C76.762 17.4524 75.7768 16.6642 74.7573 15.9204L74.3534 15.6257L74.0569 16.032C72.808 15.1434 71.5086 14.3217 70.1639 13.5723L70.4035 13.13L69.9639 12.8918C68.8582 12.2928 67.723 11.7418 66.5613 11.2416L66.1021 11.0438L65.9031 11.5059C64.4926 10.9186 63.0435 10.4068 61.561 9.97571L61.6956 9.49102L61.2139 9.35723C60.0057 9.02173 58.7762 8.73899 57.528 8.51168L57.036 8.4221L56.9459 8.917C55.4455 8.66251 53.9184 8.48897 52.3694 8.40105L52.3918 7.89856L51.8923 7.87622C51.265 7.84816 50.6342 7.83398 50.0003 7.83398C49.3664 7.83398 48.7356 7.84816 48.1082 7.87622L47.6087 7.89856L47.6312 8.40105C46.0822 8.48897 44.5551 8.66251 43.0547 8.917L42.9645 8.4221L42.4726 8.51168C41.2244 8.73899 39.9949 9.02173 38.7867 9.35723L38.3049 9.49102L38.4395 9.97571C36.957 10.4068 35.508 10.9186 34.0974 11.5059L33.8985 11.0438L33.4393 11.2416C32.2776 11.7418 31.1424 12.2928 30.0367 12.8918L29.5971 13.13L29.8367 13.5723C28.492 14.3217 27.1926 15.1434 25.9436 16.032L25.6472 15.6257L25.2433 15.9204C24.2238 16.6642 23.2386 17.4524 22.2906 18.2822L21.9143 18.6115L22.2456 18.99C21.102 20.0152 20.0148 21.1023 18.9896 22.246L18.6112 21.9147L18.2819 22.2909C17.452 23.2389 16.6638 24.2241 15.92 25.2436L15.6253 25.6476L16.0316 25.944C15.143 27.1929 14.3213 28.4924 13.5719 29.837L13.1296 29.5974L12.8915 30.0371C12.2925 31.1428 11.7414 32.2779 11.2412 33.4396L11.0435 33.8989L11.5055 34.0978C10.9182 35.5083 10.4065 36.9574 9.97534 38.4399L9.49065 38.3053L9.35686 38.7871C9.02137 39.9952 8.73863 41.2248 8.51132 42.473L8.42174 42.9649L8.91663 43.055C8.66214 44.5555 8.4886 46.0826 8.40069 47.6316L7.89819 47.6091L7.87585 48.1086C7.8478 48.736 7.83362 49.3667 7.83362 50.0007C7.83362 50.6346 7.8478 51.2653 7.87585 51.8927L7.89819 52.3922L8.40069 52.3697C8.4886 53.9187 8.66214 55.4458 8.91663 56.9463L8.42174 57.0364L8.51132 57.5283C8.73863 58.7765 9.02137 60.0061 9.35687 61.2142L9.49065 61.696L9.97534 61.5614C10.4065 63.0439 10.9182 64.493 11.5055 65.9035L11.0435 66.1024L11.2412 66.5617C11.7414 67.7234 12.2925 68.8585 12.8915 69.9642L13.1296 70.4039L13.5719 70.1643C14.3213 71.5089 15.143 72.8084 16.0316 74.0573L15.6253 74.3538L15.92 74.7577C16.6638 75.7772 17.452 76.7624 18.2819 77.7104L18.6112 78.0866L18.9896 77.7554C20.0148 78.899 21.102 79.9861 22.2456 81.0113L21.9143 81.3898L22.2906 81.7191C23.2386 82.5489 24.2238 83.3372 25.2433 84.081L25.6472 84.3756L25.9436 83.9693C27.1926 84.858 28.492 85.6796 29.8367 86.4291L29.5971 86.8713L30.0367 87.1095C31.1424 87.7085 32.2776 88.2595 33.4393 88.7597L33.8985 88.9575L34.0974 88.4955C35.508 89.0827 36.957 89.5945 38.4395 90.0256L38.305 90.5103L38.7867 90.6441C39.9949 90.9796 41.2244 91.2623 42.4726 91.4896L42.9645 91.5792L43.0547 91.0843Z" fill="white" stroke="#A6B7D4" stroke-linecap="square" stroke-linejoin="round" stroke-dasharray="4 6"/>
<path d="M36 49.999H64" stroke="#A6B7D4" stroke-width="1.5" stroke-linecap="round" stroke-linejoin="round"/>
<path d="M49.9998 64V36" stroke="#A6B7D4" stroke-width="1.5" stroke-linecap="round" stroke-linejoin="round"/>
</svg>
