<svg width="50" height="50" viewBox="0 0 50 50" fill="none" xmlns="http://www.w3.org/2000/svg">
<g id="filter-search">
<g id="Group">
<path id="Union" d="M29.2499 40C29.2499 39.5858 29.5857 39.25 29.9999 39.25C30.4141 39.25 30.7499 39.5858 30.7499 40H29.2499ZM27.9375 43.3125L28.4199 43.8868C28.3959 43.907 28.3706 43.9256 28.3442 43.9426L27.9375 43.3125ZM25.0001 45.2083L25.4068 45.8385C25.4027 45.8411 25.3986 45.8437 25.3945 45.8462L25.0001 45.2083ZM17.7292 36.5C17.7292 36.0858 18.065 35.75 18.4792 35.75C18.8934 35.75 19.2292 36.0858 19.2292 36.5H17.7292ZM9.32201 17.1155C9.61491 17.4084 9.61491 17.8833 9.32201 18.1761C9.02912 18.469 8.55424 18.469 8.26135 18.1761L9.32201 17.1155ZM41.5304 18.3845C41.2375 18.6774 40.7626 18.6774 40.4697 18.3845C40.1768 18.0916 40.1768 17.6167 40.4697 17.3238L41.5304 18.3845ZM30.7414 40.6125C30.6793 41.0221 30.2969 41.3037 29.8874 41.2415C29.4778 41.1794 29.1962 40.797 29.2584 40.3875L30.7414 40.6125ZM31.5208 30.4792H32.2708C32.2708 30.5168 32.268 30.5544 32.2623 30.5917L31.5208 30.4792ZM33.2083 26.0625L32.6284 25.5869C32.64 25.5728 32.6521 25.5591 32.6647 25.5458L33.2083 26.0625ZM41.2084 17.6458L40.6648 17.1291C40.6691 17.1245 40.6736 17.12 40.678 17.1155L41.2084 17.6458ZM9.53033 17.3238C9.82322 17.6167 9.82322 18.0916 9.53033 18.3845C9.23744 18.6774 8.76256 18.6774 8.46967 18.3845L9.53033 17.3238ZM30.7499 40C30.7499 41.3199 30.0585 42.5103 28.4199 43.8868L27.4551 42.7382C28.9413 41.4897 29.2499 40.6801 29.2499 40H30.7499ZM28.3442 43.9426L25.4068 45.8385L24.5934 44.5782L27.5308 42.6823L28.3442 43.9426ZM25.3945 45.8462C22.201 47.8208 17.7292 45.6286 17.7292 41.625H19.2292C19.2292 44.3714 22.3408 45.9708 24.6056 44.5704L25.3945 45.8462ZM17.7292 41.625V36.5H19.2292V41.625H17.7292ZM8.26135 18.1761C7.65166 17.5665 7.13047 16.7502 6.76106 15.9268C6.39445 15.1096 6.1459 14.215 6.1459 13.4375H7.6459C7.6459 13.9308 7.81399 14.6092 8.12965 15.3128C8.4425 16.0102 8.8692 16.6627 9.32201 17.1155L8.26135 18.1761ZM6.1459 13.4375V8.60416H7.6459V13.4375H6.1459ZM6.1459 8.60416C6.1459 5.69302 8.35405 3.4375 11.1043 3.4375V4.9375C9.22951 4.9375 7.6459 6.47362 7.6459 8.60416H6.1459ZM11.1043 3.4375H38.8959V4.9375H11.1043V3.4375ZM38.8959 3.4375C41.6226 3.4375 43.8542 5.66908 43.8542 8.39581H42.3542C42.3542 6.49754 40.7942 4.9375 38.8959 4.9375V3.4375ZM43.8542 8.39581V13.0208H42.3542V8.39581H43.8542ZM43.8542 13.0208C43.8542 14.0071 43.5482 15.0641 43.1251 15.9911C42.701 16.9202 42.1281 17.7868 41.5304 18.3845L40.4697 17.3238C40.9137 16.8799 41.3929 16.1735 41.7605 15.3682C42.129 14.5609 42.3542 13.722 42.3542 13.0208H43.8542ZM29.2584 40.3875L30.7793 30.3666L32.2623 30.5917L30.7414 40.6125L29.2584 40.3875ZM30.7708 30.4792C30.7708 29.613 31.0112 28.6714 31.3477 27.8286C31.6856 26.9827 32.1435 26.1782 32.6284 25.5869L33.7883 26.5381C33.4189 26.9885 33.0332 27.6527 32.7408 28.3849C32.4471 29.1202 32.2708 29.8662 32.2708 30.4792H30.7708ZM32.6647 25.5458L40.6648 17.1291L41.752 18.1625L33.7519 26.5792L32.6647 25.5458ZM40.678 17.1155C41.1309 16.6627 41.5576 16.0102 41.8704 15.3128C42.1861 14.6092 42.3542 13.9308 42.3542 13.4375H43.8542C43.8542 14.215 43.6056 15.1096 43.239 15.9268C42.8696 16.7502 42.3484 17.5665 41.7387 18.1761L40.678 17.1155ZM42.3542 13.4375V8.60416H43.8542V13.4375H42.3542ZM42.3542 8.60416C42.3542 6.47362 40.7706 4.9375 38.8958 4.9375V3.4375C41.646 3.4375 43.8542 5.69302 43.8542 8.60416H42.3542ZM38.8958 4.9375H11.1042V3.4375H38.8958V4.9375ZM11.1042 4.9375C9.20589 4.9375 7.64581 6.49754 7.64581 8.39581H6.14581C6.14581 5.66908 8.37749 3.4375 11.1042 3.4375V4.9375ZM7.64581 8.39581V13.0208H6.14581V8.39581H7.64581ZM7.64581 13.0208C7.64581 13.722 7.87105 14.5609 8.23956 15.3682C8.60714 16.1735 9.08639 16.8799 9.53033 17.3238L8.46967 18.3845C7.87194 17.7868 7.2991 16.9202 6.875 15.9911C6.45184 15.0641 6.14581 14.0071 6.14581 13.0208H7.64581Z" fill="#9AACCD"/>
</g>
<g id="Group_2">
<path id="Union_2" d="M7.28159 35.4024C6.87533 35.7766 6.2427 35.7505 5.86857 35.3443C5.49444 34.938 5.52049 34.3054 5.92674 33.9312L7.28159 35.4024ZM8.82258 31.2644C9.22883 30.8903 9.86146 30.9163 10.2356 31.3226C10.6097 31.7288 10.5837 32.3615 10.1774 32.7356L8.82258 31.2644ZM14.5208 34.4168C10.2866 34.4168 6.85411 30.9844 6.85411 26.7502H8.85411C8.85411 29.8798 11.3912 32.4168 14.5208 32.4168V34.4168ZM22.1875 26.7502C22.1875 30.9844 18.755 34.4168 14.5208 34.4168V32.4168C17.6504 32.4168 20.1875 29.8798 20.1875 26.7502H22.1875ZM14.5208 19.0835C18.755 19.0835 22.1875 22.516 22.1875 26.7502H20.1875C20.1875 23.6206 17.6504 21.0835 14.5208 21.0835V19.0835ZM6.85411 26.7502C6.85411 22.516 10.2866 19.0835 14.5208 19.0835V21.0835C11.3912 21.0835 8.85411 23.6206 8.85411 26.7502H6.85411ZM5.92674 33.9312L8.82258 31.2644L10.1774 32.7356L7.28159 35.4024L5.92674 33.9312Z" fill="#F35C00"/>
</g>
</g>
</svg>
