<svg width="50" height="50" viewBox="0 0 50 50" fill="none" xmlns="http://www.w3.org/2000/svg">
<path d="M14.5682 41.5544L14.5695 41.553C15.2827 40.7877 16.1493 40.465 16.9644 40.5094C17.7798 40.5538 18.6069 40.969 19.2333 41.8042L21.3369 44.616L21.3395 44.6194C22.3035 45.8929 23.6171 46.5886 24.9895 46.5886C26.362 46.5886 27.6755 45.8929 28.6396 44.6194L28.6422 44.616L30.7458 41.8042C31.3722 40.969 32.1993 40.5538 33.0147 40.5094C33.8298 40.465 34.6964 40.7877 35.4096 41.553L35.411 41.5545C36.3806 42.5895 37.3464 43.3258 38.2772 43.7272C39.2152 44.1317 40.162 44.2113 41.0107 43.8449C41.854 43.4809 42.4623 42.7362 42.8524 41.775C43.2416 40.8162 43.4375 39.5912 43.4375 38.1459L43.4375 14.6686C43.4375 14.6681 43.4375 14.6676 43.4375 14.6671C43.4477 10.4815 42.9837 7.56974 41.2903 5.75641C39.5801 3.9252 36.8136 3.41675 32.875 3.41675H17.125C13.186 3.41675 10.4201 3.92533 8.70748 5.75593C7.01153 7.56874 6.54163 10.4803 6.54163 14.6667V38.1251C6.54163 39.5758 6.73882 40.8037 7.12988 41.764C7.522 42.727 8.13254 43.4711 8.97672 43.8347C9.82607 44.2006 10.7729 44.1214 11.71 43.7183C12.64 43.3183 13.6034 42.5846 14.5682 41.5544Z" stroke="#9AACCD" stroke-width="1.5" stroke-linecap="round" stroke-linejoin="round"/>
<path d="M16.0118 22.9167H16.0302" stroke="#F35C00" stroke-width="2" stroke-linecap="round" stroke-linejoin="round"/>
<path d="M16.0118 30.9167H16.0302" stroke="#F35C00" stroke-width="2" stroke-linecap="round" stroke-linejoin="round"/>
<path d="M21.746 22.9167H32.9999" stroke="#F35C00" stroke-width="2" stroke-linecap="round" stroke-linejoin="round"/>
<path d="M21.746 30.9167H32.9999" stroke="#F35C00" stroke-width="2" stroke-linecap="round" stroke-linejoin="round"/>
<path d="M16.0118 14.5834H16.0302" stroke="#F35C00" stroke-width="2" stroke-linecap="round" stroke-linejoin="round"/>
<path d="M21.746 14.5833H32.9999" stroke="#F35C00" stroke-width="2" stroke-linecap="round" stroke-linejoin="round"/>
</svg>
