<svg width="50" height="50" viewBox="0 0 50 50" fill="none" xmlns="http://www.w3.org/2000/svg">
<path d="M4.16658 25.0001V18.7501C4.16658 8.33342 8.33325 4.16675 18.7499 4.16675H31.2499C41.6666 4.16675 45.8333 8.33342 45.8333 18.7501V31.2501C45.8333 41.6668 41.6666 45.8334 31.2499 45.8334H24.9999" stroke="#9AACCD" stroke-width="1.5" stroke-linecap="round" stroke-linejoin="round"/>
<path d="M6.33343 37.1666L9.72926 38.3125C10.6668 38.625 11.4168 39.3541 11.7293 40.3125L12.8751 43.7083C13.8543 46.6458 17.9793 46.5833 18.8959 43.6458L22.7501 31.2499C23.5001 28.7916 21.2293 26.4999 18.7918 27.2708L6.37509 31.1249C3.45842 32.0416 3.41676 36.1874 6.33343 37.1666Z" stroke="#F35C00" stroke-width="2" stroke-linecap="round" stroke-linejoin="round"/>
</svg>
