<svg width="23" height="22" viewBox="0 0 23 22" fill="none" xmlns="http://www.w3.org/2000/svg">
<path fill-rule="evenodd" clip-rule="evenodd" d="M3.49541 8.49852C3.42168 4.27465 6.63615 0.5 11 0.5C15.3638 0.5 18.5783 4.27465 18.5046 8.49852C18.5016 8.67099 18.5 8.8385 18.5 9C18.5 10.9784 18.7359 13.7568 18.8834 15.2962C18.89 15.3647 18.893 15.4327 18.8927 15.5H21C21.5523 15.5 22 15.9477 22 16.5C22 17.0523 21.5523 17.5 21 17.5H16.8847H15C15 19.7091 13.2091 21.5 11 21.5C8.79086 21.5 7 19.7091 7 17.5H5.11535H1C0.447715 17.5 0 17.0523 0 16.5C0 15.9477 0.447715 15.5 1 15.5H3.10729C3.10698 15.4327 3.11003 15.3647 3.11659 15.2962C3.2641 13.7568 3.5 10.9784 3.5 9C3.5 8.8385 3.49842 8.67099 3.49541 8.49852ZM8.02286 15.5H13.9771H16.8847L16.8862 15.5C16.8868 15.4996 16.8878 15.4988 16.889 15.4975C16.891 15.4952 16.892 15.4931 16.8923 15.4921L16.8926 15.491C16.8926 15.4907 16.8928 15.4895 16.8925 15.4869C16.7452 13.9498 16.5 11.0848 16.5 9C16.5 8.82557 16.5017 8.64634 16.5049 8.46362C16.5616 5.21598 14.1088 2.5 11 2.5C7.8912 2.5 5.43841 5.21598 5.4951 8.46362C5.49829 8.64634 5.5 8.82557 5.5 9C5.5 11.0848 5.25477 13.9498 5.10747 15.4869C5.10723 15.4895 5.10736 15.4907 5.1074 15.491L5.10765 15.4921C5.108 15.4931 5.10899 15.4952 5.11102 15.4975C5.11224 15.4988 5.11325 15.4996 5.11379 15.5L5.11535 15.5H8.02286ZM9 17.5C9 18.6046 9.89543 19.5 11 19.5C12.1046 19.5 13 18.6046 13 17.5H9Z" fill="#156AE8"/>
<circle cx="17" cy="12.5" r="5" fill="#F35C00" stroke="#F3F8FE" stroke-width="2"/>
</svg>
