<svg width="15" height="18" viewBox="0 0 15 18" fill="none" xmlns="http://www.w3.org/2000/svg">
<path d="M4.82812 1.3335V3.3335" stroke="#8C9AAD" stroke-opacity="0.65" stroke-width="1.5" stroke-miterlimit="10" stroke-linecap="round" stroke-linejoin="round"/>
<path d="M10.1719 1.3335V3.3335" stroke="#8C9AAD" stroke-opacity="0.65" stroke-width="1.5" stroke-miterlimit="10" stroke-linecap="round" stroke-linejoin="round"/>
<path d="M1.82812 7.06006H13.1615" stroke="#8C9AAD" stroke-opacity="0.65" stroke-width="1.5" stroke-miterlimit="10" stroke-linecap="round" stroke-linejoin="round"/>
<path d="M14.25 12.3335V6.66683C14.25 5.55186 13.9714 4.50814 13.2579 3.73982C12.5351 2.96144 11.4763 2.5835 10.1667 2.5835H4.83333C3.52372 2.5835 2.46485 2.96144 1.74207 3.73982C1.02863 4.50814 0.75 5.55186 0.75 6.66683V12.3335C0.75 13.4485 1.02863 14.4922 1.74207 15.2605C2.46485 16.0389 3.52372 16.4168 4.83333 16.4168H10.1667C11.4763 16.4168 12.5351 16.0389 13.2579 15.2605C13.9714 14.4922 14.25 13.4485 14.25 12.3335Z" stroke="#8C9AAD" stroke-opacity="0.65" stroke-width="1.5" stroke-miterlimit="10" stroke-linecap="round" stroke-linejoin="round"/>
</svg>
