<svg width="28" height="28" viewBox="0 0 28 28" fill="none" xmlns="http://www.w3.org/2000/svg">
<path d="M9 4H6C5.46957 4 4.96086 4.21071 4.58579 4.58579C4.21071 4.96086 4 5.46957 4 6V13C4 13.5304 4.21071 14.0391 4.58579 14.4142C4.96086 14.7893 5.46957 15 6 15H9M16 17V21C16 21.7956 15.6839 22.5587 15.1213 23.1213C14.5587 23.6839 13.7956 24 13 24L9 15V4H20.28C20.7623 3.99455 21.2304 4.1636 21.5979 4.47599C21.9654 4.78839 22.2077 5.22309 22.28 5.7L23.66 14.7C23.7035 14.9866 23.6842 15.2793 23.6033 15.5577C23.5225 15.8362 23.3821 16.0937 23.1919 16.3125C23.0016 16.5313 22.7661 16.7061 22.5016 16.8248C22.2371 16.9435 21.9499 17.0033 21.66 17H16Z" stroke="#D03900" stroke-width="1.5" stroke-linecap="round" stroke-linejoin="round"/>
</svg>
