<svg width="24" height="24" viewBox="0 0 24 24" fill="none" xmlns="http://www.w3.org/2000/svg">
<path d="M14.5299 9.46992L9.46992 14.5299C8.81992 13.8799 8.41992 12.9899 8.41992 11.9999C8.41992 10.0199 10.0199 8.41992 11.9999 8.41992C12.9899 8.41992 13.8799 8.81992 14.5299 9.46992Z" stroke="#A6B7D4" stroke-width="1.5" stroke-linecap="round" stroke-linejoin="round"/>
<path d="M17.8198 5.76949C16.0698 4.44949 14.0698 3.72949 11.9998 3.72949C8.46984 3.72949 5.17984 5.80949 2.88984 9.40949C1.98984 10.8195 1.98984 13.1895 2.88984 14.5995C3.67984 15.8395 4.59984 16.9095 5.59984 17.7695" stroke="#A6B7D4" stroke-width="1.5" stroke-linecap="round" stroke-linejoin="round"/>
<path d="M8.41992 19.5307C9.55992 20.0107 10.7699 20.2707 11.9999 20.2707C15.5299 20.2707 18.8199 18.1907 21.1099 14.5907C22.0099 13.1807 22.0099 10.8107 21.1099 9.40066C20.7799 8.88066 20.4199 8.39066 20.0499 7.93066" stroke="#A6B7D4" stroke-width="1.5" stroke-linecap="round" stroke-linejoin="round"/>
<path d="M15.5099 12.7002C15.2499 14.1102 14.0999 15.2602 12.6899 15.5202" stroke="#A6B7D4" stroke-width="1.5" stroke-linecap="round" stroke-linejoin="round"/>
<path d="M9.47 14.5293L2 21.9993" stroke="#A6B7D4" stroke-width="1.5" stroke-linecap="round" stroke-linejoin="round"/>
<path d="M21.9998 2L14.5298 9.47" stroke="#A6B7D4" stroke-width="1.5" stroke-linecap="round" stroke-linejoin="round"/>
</svg>
