<svg width="27" height="31" viewBox="0 0 27 31" fill="none" xmlns="http://www.w3.org/2000/svg">
<path d="M15.4067 5.31695L17.5184 9.54049C17.8064 10.1284 18.5743 10.6924 19.2222 10.8004L23.0498 11.4363C25.4975 11.8442 26.0735 13.62 24.3097 15.3718L21.334 18.3475C20.8301 18.8515 20.5541 19.8234 20.7101 20.5193L21.562 24.2029C22.2339 27.1186 20.6861 28.2464 18.1064 26.7226L14.5188 24.5988C13.8708 24.2149 12.8029 24.2149 12.143 24.5988L8.55542 26.7226C5.9877 28.2464 4.42787 27.1066 5.0998 24.2029L5.95171 20.5193C6.10769 19.8234 5.83172 18.8515 5.32777 18.3475L2.3521 15.3718C0.600296 13.62 1.16423 11.8442 3.61196 11.4363L7.43954 10.8004C8.07547 10.6924 8.84339 10.1284 9.13135 9.54049L11.2431 5.31695C12.395 3.02521 14.2668 3.02521 15.4067 5.31695Z" stroke="#4A5568" stroke-width="2" stroke-linecap="round" stroke-linejoin="round"/>
</svg>
