<svg width="23" height="23" viewBox="0 0 23 23" fill="none" xmlns="http://www.w3.org/2000/svg">
<g id="note">
<path id="Vector" d="M21.772 9.85598L20.7405 14.2558C19.8563 18.0556 18.1091 19.5924 14.825 19.2766C14.2987 19.2345 13.7303 19.1398 13.1198 18.9924L11.3515 18.5714C6.96221 17.5293 5.60438 15.361 6.63591 10.9612L7.66744 6.55087C7.87796 5.65617 8.13058 4.87726 8.44635 4.23518C9.67787 1.68793 11.7725 1.00375 15.2881 1.83529L17.046 2.2458C21.4563 3.27733 22.8036 5.45618 21.772 9.85598Z" stroke="#5B7299" stroke-width="1.5" stroke-linecap="round" stroke-linejoin="round"/>
<path id="Vector_2" d="M15.3081 19.2767C14.6555 19.7188 13.8345 20.0872 12.8345 20.4135L11.1715 20.9608C6.99271 22.3081 4.79281 21.1819 3.43498 17.0031L2.08767 12.8454C0.740366 8.66665 1.8561 6.45622 6.03486 5.10891L7.69794 4.56157C8.1295 4.42474 7.54663 4.99996 8.04663 5C7.73086 5.64208 7.75715 6.10535 7.54663 7.00004L6.54663 11C5.5151 15.3998 7.44532 17.5294 11.8346 18.5714L13.6029 18.9925C14.2134 19.1398 14.7818 19.2346 15.3081 19.2767Z" stroke="#5B7299" stroke-width="1.5" stroke-linecap="round" stroke-linejoin="round"/>
</g>
</svg>
