<svg width="16" height="16" viewBox="0 0 16 16" fill="none" xmlns="http://www.w3.org/2000/svg">
<g id="Icon/Colored/google" clip-path="url(#clip0_246_2663)">
<g id="Group 3269">
<path id="Vector" d="M15.5003 8.16613C15.5003 7.54947 15.4492 7.09947 15.3387 6.63281H8.15332V9.4161H12.371C12.286 10.1078 11.8268 11.1495 10.8064 11.8494L10.7921 11.9426L13.0639 13.6674L13.2213 13.6828C14.6669 12.3744 15.5003 10.4494 15.5003 8.16613Z" fill="#1D30B5"/>
<path id="Vector_2" d="M8.15316 15.5005C10.2195 15.5005 11.9541 14.8338 13.2212 13.6839L10.8062 11.8505C10.16 12.2922 9.29259 12.6005 8.15316 12.6005C6.12936 12.6005 4.41169 11.2922 3.79939 9.48389L3.70964 9.49136L1.3473 11.283L1.31641 11.3672C2.5749 13.8172 5.15994 15.5005 8.15316 15.5005Z" fill="#34A853"/>
<path id="Vector_3" d="M3.79929 9.48319C3.63772 9.01653 3.54422 8.51649 3.54422 7.99985C3.54422 7.48315 3.63772 6.98318 3.79079 6.51652L3.78651 6.41713L1.39457 4.59668L1.31631 4.63316C0.797622 5.64984 0.5 6.79152 0.5 7.99985C0.5 9.20818 0.797622 10.3498 1.31631 11.3665L3.79929 9.48319Z" fill="#FBBC05"/>
<path id="Vector_4" d="M8.15316 3.39997C9.59021 3.39997 10.5596 4.0083 11.1123 4.51667L13.2722 2.45C11.9457 1.24167 10.2195 0.5 8.15316 0.5C5.15994 0.5 2.5749 2.18332 1.31641 4.63329L3.79089 6.51665C4.41169 4.70832 6.12936 3.39997 8.15316 3.39997Z" fill="#EB4335"/>
</g>
</g>
<defs>
<clipPath id="clip0_246_2663">
<rect width="15.0002" height="16" fill="white" transform="translate(0.5)"/>
</clipPath>
</defs>
</svg>
