<svg width="50" height="54" viewBox="0 0 50 54" fill="none" xmlns="http://www.w3.org/2000/svg">
<g id="Sheet_Icon_UIA">
<g id="Group 6049">
<path id="Rectangle 3306" d="M43.462 19.8679C36.0937 12.4995 24.5941 1 24.5941 1M43.462 19.8679C42.8024 19.8679 42.1097 19.8679 41.3951 19.8679C35.0373 19.8679 31.8584 19.8679 29.5037 18.4753C28.0539 17.6179 26.8441 16.4082 25.9867 14.9583C24.5941 12.6036 24.5941 9.42505 24.5941 3.06792V1M43.462 19.8679V27.9457M24.5941 1H19.4602C13.103 1 9.92447 1 7.56974 2.39258C6.11992 3.25 4.91016 4.45976 4.05274 5.90959C2.66016 8.26431 2.66016 11.4429 2.66016 17.8V36.5542C2.66016 41.0155 6.27672 44.6321 10.738 44.6321V44.6321H21.646" stroke="#156AE8" stroke-width="2" stroke-linecap="round" stroke-linejoin="round"/>
<g id="Group 6048">
<path id="Vector 64" d="M12.3535 24.1152H28.5681" stroke="#156AE8" stroke-width="2" stroke-linecap="round" stroke-linejoin="round"/>
<path id="Vector 65" d="M12.3535 31.9116H22.6719" stroke="#156AE8" stroke-width="2" stroke-linecap="round" stroke-linejoin="round"/>
</g>
<g id="add-circle">
<path id="Vector" d="M37.6774 52.113C31.9364 52.113 27.2434 47.42 27.2434 41.6791C27.2434 35.9381 31.9364 31.2451 37.6774 31.2451C43.4183 31.2451 48.1113 35.9381 48.1113 41.6791C48.1113 47.42 43.4183 52.113 37.6774 52.113Z" fill="#F35C00" stroke="#F35C00" stroke-width="2" stroke-linecap="square"/>
<path id="Vector_2" d="M41.4512 41.6797H33.904" stroke="white" stroke-width="2" stroke-linecap="round" stroke-linejoin="round"/>
<path id="Vector_3" d="M37.6797 45.4524V37.9053" stroke="white" stroke-width="2" stroke-linecap="round" stroke-linejoin="round"/>
</g>
</g>
</g>
</svg>
