<svg width="169" height="29" viewBox="0 0 169 29" fill="none" xmlns="http://www.w3.org/2000/svg">
<path d="M13.7792 8.244H6.75122V11.436H13.6392V16.28H6.75122V23H1.73922V3.4H13.7792V8.244ZM21.4394 23.392C19.3674 23.392 17.6034 22.6827 16.1474 21.264C14.6914 19.8267 13.9634 18.072 13.9634 16C13.9634 13.928 14.6914 12.1827 16.1474 10.764C17.6034 9.32667 19.3674 8.608 21.4394 8.608C23.5301 8.608 25.2941 9.32667 26.7314 10.764C28.1874 12.1827 28.9154 13.928 28.9154 16C28.9154 18.072 28.1874 19.8267 26.7314 21.264C25.2941 22.6827 23.5301 23.392 21.4394 23.392ZM21.4394 18.912C22.2607 18.912 22.9327 18.6413 23.4554 18.1C23.9967 17.5587 24.2674 16.8587 24.2674 16C24.2674 15.1413 23.9967 14.4413 23.4554 13.9C22.9327 13.3587 22.2607 13.088 21.4394 13.088C20.6367 13.088 19.9647 13.3587 19.4234 13.9C18.9007 14.4413 18.6394 15.1413 18.6394 16C18.6394 16.8587 18.9007 17.5587 19.4234 18.1C19.9647 18.6413 20.6367 18.912 21.4394 18.912ZM36.3636 23.392C34.2916 23.392 32.5276 22.6827 31.0716 21.264C29.6156 19.8267 28.8876 18.072 28.8876 16C28.8876 13.928 29.6156 12.1827 31.0716 10.764C32.5276 9.32667 34.2916 8.608 36.3636 8.608C38.4543 8.608 40.2183 9.32667 41.6556 10.764C43.1116 12.1827 43.8396 13.928 43.8396 16C43.8396 18.072 43.1116 19.8267 41.6556 21.264C40.2183 22.6827 38.4543 23.392 36.3636 23.392ZM36.3636 18.912C37.185 18.912 37.857 18.6413 38.3796 18.1C38.921 17.5587 39.1916 16.8587 39.1916 16C39.1916 15.1413 38.921 14.4413 38.3796 13.9C37.857 13.3587 37.185 13.088 36.3636 13.088C35.561 13.088 34.889 13.3587 34.3476 13.9C33.825 14.4413 33.5636 15.1413 33.5636 16C33.5636 16.8587 33.825 17.5587 34.3476 18.1C34.889 18.6413 35.561 18.912 36.3636 18.912ZM54.3678 3.4H59.0158V23H54.3678V21.712C53.4158 22.832 52.0905 23.392 50.3918 23.392C48.5252 23.392 46.9572 22.692 45.6878 21.292C44.4372 19.8733 43.8118 18.1093 43.8118 16C43.8118 13.8907 44.4372 12.136 45.6878 10.736C46.9572 9.31733 48.5252 8.608 50.3918 8.608C52.0905 8.608 53.4158 9.168 54.3678 10.288V3.4ZM49.2998 18.212C49.8412 18.772 50.5505 19.052 51.4278 19.052C52.3052 19.052 53.0145 18.772 53.5558 18.212C54.0972 17.652 54.3678 16.9147 54.3678 16C54.3678 15.0853 54.0972 14.348 53.5558 13.788C53.0145 13.228 52.3052 12.948 51.4278 12.948C50.5505 12.948 49.8412 13.228 49.2998 13.788C48.7585 14.348 48.4878 15.0853 48.4878 16C48.4878 16.9147 48.7585 17.652 49.2998 18.212Z" fill="#304B7A"/>
<path d="M69.5942 23.364C67.7088 23.364 66.1035 22.9347 64.7782 22.076C63.4715 21.2173 62.5568 20.0413 62.0342 18.548L64.8062 16.924C65.5902 19.1267 67.2142 20.228 69.6782 20.228C70.8915 20.228 71.7968 19.9947 72.3942 19.528C73.0102 19.0427 73.3182 18.4173 73.3182 17.652C73.3182 16.8493 72.9915 16.2427 72.3382 15.832C71.6848 15.4027 70.5275 14.936 68.8662 14.432C67.9328 14.152 67.1768 13.8907 66.5982 13.648C66.0195 13.4053 65.4035 13.0693 64.7502 12.64C64.1155 12.192 63.6395 11.6413 63.3222 10.988C63.0048 10.3347 62.8462 9.56933 62.8462 8.692C62.8462 6.956 63.4622 5.584 64.6942 4.576C65.9262 3.54933 67.4102 3.036 69.1462 3.036C70.7142 3.036 72.0862 3.41867 73.2622 4.184C74.4382 4.94933 75.3435 6.004 75.9782 7.348L73.2622 8.916C72.4408 7.08667 71.0688 6.172 69.1462 6.172C68.2128 6.172 67.4662 6.396 66.9062 6.844C66.3462 7.27333 66.0662 7.86133 66.0662 8.608C66.0662 9.336 66.3462 9.91467 66.9062 10.344C67.4848 10.7547 68.5208 11.1933 70.0142 11.66C70.7608 11.9027 71.3022 12.0893 71.6382 12.22C71.9928 12.332 72.4782 12.5187 73.0942 12.78C73.7288 13.0413 74.2048 13.3027 74.5222 13.564C74.8395 13.8253 75.1755 14.152 75.5302 14.544C75.9035 14.936 76.1648 15.384 76.3142 15.888C76.4635 16.392 76.5382 16.9613 76.5382 17.596C76.5382 19.3693 75.8942 20.7787 74.6062 21.824C73.3368 22.8507 71.6662 23.364 69.5942 23.364ZM87.1797 9H90.2037V23H87.1797V21.208C86.265 22.6453 84.8184 23.364 82.8397 23.364C81.2344 23.364 79.937 22.8507 78.9477 21.824C77.9584 20.7973 77.4637 19.388 77.4637 17.596V9H80.4877V17.288C80.4877 18.3333 80.7677 19.136 81.3277 19.696C81.8877 20.256 82.653 20.536 83.6237 20.536C84.6877 20.536 85.5464 20.2093 86.1997 19.556C86.853 18.884 87.1797 17.8667 87.1797 16.504V9ZM100.264 8.636C102.186 8.636 103.829 9.35467 105.192 10.792C106.554 12.2107 107.236 13.9467 107.236 16C107.236 18.072 106.554 19.8173 105.192 21.236C103.829 22.6547 102.186 23.364 100.264 23.364C98.1358 23.364 96.5024 22.58 95.3638 21.012V28.6H92.3398V9H95.3638V11.016C96.5024 9.42933 98.1358 8.636 100.264 8.636ZM96.6238 19.22C97.4638 20.06 98.5184 20.48 99.7878 20.48C101.057 20.48 102.112 20.06 102.952 19.22C103.792 18.3613 104.212 17.288 104.212 16C104.212 14.712 103.792 13.648 102.952 12.808C102.112 11.9493 101.057 11.52 99.7878 11.52C98.5184 11.52 97.4638 11.9493 96.6238 12.808C95.7838 13.648 95.3638 14.712 95.3638 16C95.3638 17.288 95.7838 18.3613 96.6238 19.22ZM116.501 8.636C118.423 8.636 120.066 9.35467 121.429 10.792C122.791 12.2107 123.473 13.9467 123.473 16C123.473 18.072 122.791 19.8173 121.429 21.236C120.066 22.6547 118.423 23.364 116.501 23.364C114.373 23.364 112.739 22.58 111.601 21.012V28.6H108.577V9H111.601V11.016C112.739 9.42933 114.373 8.636 116.501 8.636ZM112.861 19.22C113.701 20.06 114.755 20.48 116.025 20.48C117.294 20.48 118.349 20.06 119.189 19.22C120.029 18.3613 120.449 17.288 120.449 16C120.449 14.712 120.029 13.648 119.189 12.808C118.349 11.9493 117.294 11.52 116.025 11.52C114.755 11.52 113.701 11.9493 112.861 12.808C112.021 13.648 111.601 14.712 111.601 16C111.601 17.288 112.021 18.3613 112.861 19.22ZM124.813 23V2.56H127.837V23H124.813ZM132.804 6.34C132.431 6.71333 131.983 6.9 131.46 6.9C130.938 6.9 130.48 6.71333 130.088 6.34C129.715 5.948 129.528 5.49067 129.528 4.968C129.528 4.44533 129.715 3.99733 130.088 3.624C130.462 3.232 130.919 3.036 131.46 3.036C132.002 3.036 132.459 3.232 132.832 3.624C133.206 3.99733 133.392 4.44533 133.392 4.968C133.392 5.49067 133.196 5.948 132.804 6.34ZM129.948 23V9H132.972V23H129.948ZM137.464 17.288C137.688 18.352 138.201 19.1733 139.004 19.752C139.806 20.312 140.786 20.592 141.944 20.592C143.549 20.592 144.753 20.0133 145.556 18.856L148.048 20.312C146.666 22.3467 144.622 23.364 141.916 23.364C139.638 23.364 137.8 22.6733 136.4 21.292C135 19.892 134.3 18.128 134.3 16C134.3 13.9093 134.99 12.164 136.372 10.764C137.753 9.34533 139.526 8.636 141.692 8.636C143.745 8.636 145.425 9.35467 146.732 10.792C148.057 12.2293 148.72 13.9747 148.72 16.028C148.72 16.3453 148.682 16.7653 148.608 17.288H137.464ZM137.436 14.824H145.668C145.462 13.6853 144.986 12.8267 144.24 12.248C143.512 11.6693 142.653 11.38 141.664 11.38C140.544 11.38 139.61 11.688 138.864 12.304C138.117 12.92 137.641 13.76 137.436 14.824ZM153.004 11.352C153.77 9.616 155.207 8.748 157.316 8.748V12.024C156.159 11.9493 155.151 12.2293 154.292 12.864C153.434 13.48 153.004 14.5067 153.004 15.944V23H149.98V9H153.004V11.352ZM160.375 12.864C160.375 13.3307 160.627 13.704 161.131 13.984C161.653 14.2453 162.279 14.4787 163.007 14.684C163.753 14.8707 164.5 15.0947 165.247 15.356C165.993 15.6173 166.619 16.0653 167.123 16.7C167.645 17.316 167.907 18.1 167.907 19.052C167.907 20.396 167.384 21.4507 166.339 22.216C165.312 22.9813 164.015 23.364 162.447 23.364C161.065 23.364 159.88 23.0747 158.891 22.496C157.901 21.9173 157.183 21.1147 156.735 20.088L159.339 18.576C159.824 19.92 160.86 20.592 162.447 20.592C164.033 20.592 164.827 20.0693 164.827 19.024C164.827 18.576 164.565 18.212 164.043 17.932C163.539 17.652 162.913 17.4187 162.167 17.232C161.439 17.0267 160.701 16.7933 159.955 16.532C159.208 16.2707 158.573 15.8413 158.051 15.244C157.547 14.628 157.295 13.8533 157.295 12.92C157.295 11.632 157.78 10.596 158.751 9.812C159.74 9.028 160.963 8.636 162.419 8.636C163.576 8.636 164.603 8.89733 165.499 9.42C166.413 9.924 167.113 10.6333 167.599 11.548L165.051 12.976C164.565 11.912 163.688 11.38 162.419 11.38C161.84 11.38 161.355 11.5107 160.963 11.772C160.571 12.0147 160.375 12.3787 160.375 12.864Z" fill="#B4C7DD"/>
</svg>
