<svg width="20" height="20" viewBox="0 0 20 20" fill="none" xmlns="http://www.w3.org/2000/svg">
<path fill-rule="evenodd" clip-rule="evenodd" d="M10 2C5.58172 2 2 5.58172 2 10C2 14.4183 5.58172 18 10 18C14.4183 18 18 14.4183 18 10C18 5.58172 14.4183 2 10 2ZM0 10C0 4.47715 4.47715 0 10 0C15.5228 0 20 4.47715 20 10C20 15.5228 15.5228 20 10 20C4.47715 20 0 15.5228 0 10ZM13.844 6.29289C14.2345 6.68342 14.2345 7.31658 13.844 7.70711L11.4827 10.0685L13.844 12.4298C14.2345 12.8203 14.2345 13.4535 13.844 13.844C13.4535 14.2345 12.8203 14.2345 12.4298 13.844L10.0685 11.4827L7.70709 13.844C7.31657 14.2345 6.6834 14.2345 6.29288 13.844C5.90235 13.4535 5.90235 12.8203 6.29288 12.4298L8.65424 10.0685L6.29288 7.70709C5.90235 7.31657 5.90235 6.6834 6.29288 6.29288C6.6834 5.90235 7.31657 5.90235 7.70709 6.29288L10.0685 8.65424L12.4298 6.29289C12.8203 5.90237 13.4535 5.90237 13.844 6.29289Z" fill="#D03900"/>
</svg>
