<svg width="18" height="22" viewBox="0 0 18 22" fill="none" xmlns="http://www.w3.org/2000/svg">
<path fill-rule="evenodd" clip-rule="evenodd" d="M6.8613 18.9922C7.40821 19.0691 7.91385 18.688 7.99068 18.1411C8.0675 17.5941 7.68642 17.0885 7.13951 17.0117C4.21993 16.6016 1.99988 14.141 1.99988 11.1967C1.99988 8.52503 3.82896 6.25097 6.34843 5.54689L5.08927 8.3291C4.86156 8.83226 5.08485 9.42475 5.588 9.65246C6.09116 9.88018 6.68364 9.65689 6.91136 9.15373L8.91153 4.73419C9.09617 4.3262 8.98707 3.84521 8.64446 3.55683L5.14416 0.61046C4.72164 0.254802 4.0908 0.309009 3.73514 0.731533C3.37948 1.15406 3.43369 1.7849 3.85621 2.14055L5.66506 3.66315C2.39409 4.64498 -0.000117349 7.63565 -0.000117661 11.1967C-0.000118009 15.1793 2.9957 18.4492 6.8613 18.9922ZM10.8897 3.00777C10.3428 2.93094 9.83712 3.31203 9.7603 3.85894C9.68347 4.40586 10.0646 4.9115 10.6115 4.98832C13.531 5.39844 15.7511 7.859 15.7511 10.8033C15.7511 13.475 13.922 15.749 11.4025 16.4531L12.6617 13.6709C12.8894 13.1677 12.6661 12.5753 12.163 12.3475C11.6598 12.1198 11.0673 12.3431 10.8396 12.8463L8.83945 17.2658C8.6548 17.6738 8.76391 18.1548 9.10651 18.4432L12.6068 21.3895C13.0293 21.7452 13.6602 21.691 14.0158 21.2685C14.3715 20.8459 14.3173 20.2151 13.8948 19.8594L12.0859 18.3369C15.3569 17.355 17.7511 14.3644 17.7511 10.8033C17.7511 6.82071 14.7553 3.55077 10.8897 3.00777Z" fill="#2FBEDE"/>
</svg>
