<svg width="20" height="20" viewBox="0 0 20 20" fill="none" xmlns="http://www.w3.org/2000/svg">
<path fill-rule="evenodd" clip-rule="evenodd" d="M2 10.0004C2 5.83324 5.37816 2.45508 9.54533 2.45508C10.4182 2.45508 11.2544 2.60288 12.0316 2.87402C12.5531 3.05593 13.1233 2.78067 13.3052 2.2592C13.4871 1.73774 13.2119 1.16753 12.6904 0.985622C11.7043 0.641621 10.6455 0.455078 9.54533 0.455078C4.27359 0.455078 0 4.72867 0 10.0004C0 15.2721 4.27359 19.5457 9.54533 19.5457C14.8171 19.5457 19.0907 15.2721 19.0907 10.0004C19.0907 9.64269 19.0709 9.28921 19.0324 8.94105C18.9718 8.39211 18.4776 7.9963 17.9286 8.05698C17.3797 8.11766 16.9839 8.61186 17.0446 9.1608C17.075 9.43613 17.0907 9.71625 17.0907 10.0004C17.0907 14.1676 13.7125 17.5457 9.54533 17.5457C5.37816 17.5457 2 14.1676 2 10.0004ZM18.8577 3.04556C19.2118 2.62178 19.1554 1.99113 18.7316 1.63697C18.3078 1.28282 17.6772 1.33925 17.323 1.76303L10.039 10.4789L6.39979 7.34357C5.98137 6.98309 5.34995 7.03005 4.98947 7.44847C4.62899 7.86689 4.67595 8.49831 5.09437 8.85879L9.50268 12.6567C9.70558 12.8315 9.97012 12.9176 10.237 12.8958C10.504 12.8739 10.751 12.7459 10.9227 12.5404L18.8577 3.04556Z" fill="#2EA472"/>
</svg>
