<svg width="18" height="18" viewBox="0 0 18 18" fill="none" xmlns="http://www.w3.org/2000/svg">
<path d="M9.12041 8.15445C9.04541 8.14695 8.95541 8.14695 8.87291 8.15445C7.08791 8.09445 5.67041 6.63195 5.67041 4.83195C5.67041 2.99445 7.15541 1.50195 9.00041 1.50195C10.8379 1.50195 12.3304 2.99445 12.3304 4.83195C12.3229 6.63195 10.9054 8.09445 9.12041 8.15445Z" stroke="#A6B7D4" stroke-width="1.5" stroke-linecap="round" stroke-linejoin="round"/>
<path d="M5.37053 10.918C3.55553 12.133 3.55553 14.113 5.37053 15.3205C7.43303 16.7005 10.8155 16.7005 12.878 15.3205C14.693 14.1055 14.693 12.1255 12.878 10.918C10.823 9.54555 7.44053 9.54555 5.37053 10.918Z" stroke="#A6B7D4" stroke-width="1.5" stroke-linecap="round" stroke-linejoin="round"/>
</svg>
