<svg width="22" height="17" viewBox="0 0 22 17" fill="none" xmlns="http://www.w3.org/2000/svg">
<path fill-rule="evenodd" clip-rule="evenodd" d="M5.25132 5.06872C6.45695 3.21963 8.54133 2 10.9102 2C14.255 2 17.0316 4.4329 17.5669 7.62565L16.1639 6.22265C15.8977 5.95638 15.466 5.95638 15.1997 6.22265C14.9334 6.48892 14.9334 6.92062 15.1997 7.18689L17.927 9.91416C18.1932 10.1804 18.6249 10.1804 18.8912 9.91416L21.6185 7.18689C21.8847 6.92062 21.8847 6.48892 21.6185 6.22265C21.3522 5.95638 20.9205 5.95638 20.6542 6.22265L19.103 7.77388C18.6202 3.67759 15.1362 0.5 10.9102 0.5C8.01323 0.5 5.46558 1.99372 3.99481 4.24946C3.76858 4.59644 3.86646 5.06111 4.21343 5.28734C4.56041 5.51358 5.02508 5.4157 5.25132 5.06872ZM2.71708 9.72429L1.16394 11.2774C0.89767 11.5437 0.465967 11.5437 0.1997 11.2774C-0.0665667 11.0112 -0.0665667 10.5795 0.1997 10.3132L2.92697 7.58593C3.19324 7.31966 3.62494 7.31966 3.89121 7.58593L6.61848 10.3132C6.88475 10.5795 6.88475 11.0112 6.61848 11.2774C6.35222 11.5437 5.92051 11.5437 5.65425 11.2774L4.25382 9.87702C4.79024 13.0685 7.56624 15.5 10.9102 15.5C13.279 15.5 15.3634 14.2804 16.569 12.4313C16.7952 12.0843 17.2599 11.9864 17.6069 12.2127C17.9539 12.4389 18.0517 12.9036 17.8255 13.2505C16.3547 15.5063 13.8071 17 10.9102 17C6.68344 17 3.19912 13.8215 2.71708 9.72429Z" fill="#156AE8"/>
</svg>
