<svg width="50" height="50" viewBox="0 0 50 50" fill="none" xmlns="http://www.w3.org/2000/svg">
<path d="M38.4785 35.0626L39.291 41.6459C39.4994 43.3751 37.6452 44.5834 36.166 43.6875L27.4369 38.5C26.4785 38.5 25.541 38.4376 24.6244 38.3126C26.166 36.5001 27.0827 34.2084 27.0827 31.7292C27.0827 25.8125 21.9577 21.021 15.6244 21.021C13.2077 21.021 10.9785 21.7084 9.12437 22.9167C9.06187 22.3959 9.04102 21.8751 9.04102 21.3334C9.04102 11.8542 17.2702 4.16675 27.4369 4.16675C37.6035 4.16675 45.8327 11.8542 45.8327 21.3334C45.8327 26.9584 42.9369 31.9376 38.4785 35.0626Z" stroke="#C3D3EA" stroke-width="2" stroke-linecap="round" stroke-linejoin="round"/>
<path d="M27.0827 31.7292C27.0827 34.2084 26.166 36.5001 24.6244 38.3126C22.5619 40.8126 19.291 42.4167 15.6243 42.4167L10.1868 45.6459C9.27018 46.2084 8.10351 45.4376 8.22851 44.3751L8.74934 40.271C5.95768 38.3335 4.16602 35.2292 4.16602 31.7292C4.16602 28.0626 6.12436 24.8334 9.12436 22.9168C10.9785 21.7084 13.2077 21.021 15.6243 21.021C21.9577 21.021 27.0827 25.8126 27.0827 31.7292Z" stroke="#FFC400" stroke-width="2" stroke-linecap="round" stroke-linejoin="round"/>
</svg>
