<svg width="55" height="51" viewBox="0 0 55 51" fill="none" xmlns="http://www.w3.org/2000/svg">
<path d="M4.05382 41.6144L7.27406 42.6973C8.16308 42.9926 8.87431 43.6817 9.17065 44.5873L10.2572 47.7964C11.1858 50.5724 15.0975 50.5134 15.9668 47.7374L19.6216 36.0231C20.3329 33.6999 18.1794 31.5342 15.868 32.2627L4.09332 35.9049C1.32746 36.7712 1.28796 40.6891 4.05382 41.6144Z" stroke="#F35C00" stroke-width="2" stroke-linecap="round" stroke-linejoin="round"/>
<path d="M5.83594 25.7781V21.5519C5.83594 19.0546 7.87698 16.9896 10.3983 16.9896C14.7445 16.9896 16.5214 13.916 14.3363 10.1461C13.0877 7.98495 13.832 5.17551 16.0172 3.92687L20.1713 1.54965C22.0683 0.421066 24.5175 1.09341 25.6461 2.99039L25.9102 3.44662C28.0713 7.21655 31.6252 7.21655 33.8103 3.44662L34.0744 2.99039C35.203 1.09341 37.6522 0.421066 39.5492 1.54965L43.7034 3.92687C45.8885 5.17551 46.6328 7.98495 45.3842 10.1461C43.1991 13.916 44.976 16.9896 49.3222 16.9896C51.8195 16.9896 53.8846 19.0306 53.8846 21.5519V25.7781C53.8846 28.2754 51.8435 30.3404 49.3222 30.3404C44.976 30.3404 43.1991 33.414 45.3842 37.1839C46.6328 39.3691 45.8885 42.1545 43.7034 43.4031L39.5492 45.7804C37.6522 46.9089 35.203 46.2366 34.0744 44.3396L33.8103 43.8834C31.6492 40.1134 28.0953 40.1134 25.9102 43.8834L25.6461 44.3396" stroke="#9AACCD" stroke-width="2" stroke-linecap="round" stroke-linejoin="round"/>
<path d="M29.2846 30.8155C32.8957 30.8155 35.8231 27.8881 35.8231 24.277C35.8231 20.6659 32.8957 17.7385 29.2846 17.7385C25.6735 17.7385 22.7461 20.6659 22.7461 24.277C22.7461 27.8881 25.6735 30.8155 29.2846 30.8155Z" stroke="#9AACCD" stroke-width="2" stroke-linecap="round" stroke-linejoin="round"/>
</svg>
