<svg width="50" height="52" viewBox="0 0 50 52" fill="none" xmlns="http://www.w3.org/2000/svg">
<path d="M33.4568 49.4216L33.4609 49.4238C35.2799 50.4264 37.1524 50.6017 38.6289 49.7334C40.1065 48.8645 40.8606 47.1429 40.8606 45.0645V15.9661C40.8606 11.0337 36.8268 7 31.8944 7H11.9661C7.03374 7 3 11.0337 3 15.9661V45.0645C3 47.1429 3.75403 48.8645 5.23169 49.7334C6.70821 50.6017 8.58071 50.4264 10.3997 49.4238L10.4038 49.4216L20.4639 43.8155C20.4648 43.815 20.4657 43.8145 20.4667 43.814C20.8213 43.6206 21.3488 43.4966 21.9303 43.4966C22.5118 43.4966 23.0393 43.6206 23.3939 43.814C23.3948 43.8145 23.3958 43.815 23.3967 43.8155L33.4568 49.4216Z" stroke="#9AACCD" stroke-width="2" stroke-linecap="round" stroke-linejoin="round"/>
<path d="M40.9436 41.548C44.1967 43.3411 46.8606 41.7786 46.8606 38.0645V8.96613C46.8606 4.58602 43.2746 1 38.8944 1H17.9661C13.586 1 11 2.58602 11 6.96613" stroke="#9AACCD" stroke-width="2" stroke-linecap="round" stroke-linejoin="round"/>
<path d="M16 25.5415H27.4583" stroke="#F35C00" stroke-width="2" stroke-linecap="round" stroke-linejoin="round"/>
<path d="M21.7285 31.2706V19.8123" stroke="#F35C00" stroke-width="2" stroke-linecap="round" stroke-linejoin="round"/>
</svg>
