<svg width="50" height="50" viewBox="0 0 50 50" fill="none" xmlns="http://www.w3.org/2000/svg">
<path d="M19.0853 22.6457C18.877 22.6248 18.627 22.6248 18.3978 22.6457C13.4395 22.479 9.50195 18.4165 9.50195 13.4165C9.50195 8.31234 13.627 4.1665 18.752 4.1665C23.8561 4.1665 28.002 8.31234 28.002 13.4165C27.9811 18.4165 24.0436 22.479 19.0853 22.6457Z" stroke="#9AACCD" stroke-width="2" stroke-linecap="round" stroke-linejoin="round"/>
<path d="M34.1868 8.3335C38.2285 8.3335 41.4785 11.6043 41.4785 15.6252C41.4785 19.5627 38.3535 22.771 34.4577 22.9168C34.291 22.896 34.1035 22.896 33.916 22.9168" stroke="#F35C00" stroke-width="2" stroke-linecap="round" stroke-linejoin="round"/>
<path d="M8.66797 30.3335C3.6263 33.7085 3.6263 39.2085 8.66797 42.5627C14.3971 46.396 23.793 46.396 29.5221 42.5627C34.5638 39.1877 34.5638 33.6877 29.5221 30.3335C23.8138 26.521 14.418 26.521 8.66797 30.3335Z" stroke="#9AACCD" stroke-width="2" stroke-linecap="round" stroke-linejoin="round"/>
<path d="M38.207 41.6665C39.707 41.354 41.1237 40.7498 42.2904 39.854C45.5404 37.4165 45.5404 33.3957 42.2904 30.9582C41.1445 30.0832 39.7487 29.4998 38.2695 29.1665" stroke="#F35C00" stroke-width="2" stroke-linecap="round" stroke-linejoin="round"/>
</svg>
