<svg width="50" height="51" viewBox="0 0 50 51" fill="none" xmlns="http://www.w3.org/2000/svg">
<path d="M44.2082 23.9096V14.4081C44.2082 5.41949 42.1116 3.16675 33.6806 3.16675H16.8186C8.38761 3.16675 6.29102 5.41949 6.29102 14.4081V39.5226C6.29102 45.4555 9.54745 46.8607 13.4953 42.6229L13.5176 42.6006C15.3465 40.6601 18.1345 40.8162 19.7181 42.9351L21.9709 45.9462" stroke="#C3D3EA" stroke-width="2" stroke-linecap="round" stroke-linejoin="round"/>
<path d="M38.0029 47.616C42.6345 47.616 46.3886 43.8606 46.3886 39.2287C46.3886 34.5968 42.6345 30.8413 38.0029 30.8413C33.3714 30.8413 29.6172 34.5967 29.6172 39.2287C29.6172 43.8606 33.3714 47.616 38.0029 47.616Z" stroke="#FFC400" stroke-width="2.5" stroke-linecap="round" stroke-linejoin="round"/>
<path d="M46.478 49.6669L44.248 47.4365" stroke="#FFC400" stroke-width="2.5" stroke-linecap="round" stroke-linejoin="round"/>
<path d="M16.3281 14.3186H34.1715" stroke="#C3D3EA" stroke-width="2" stroke-linecap="round" stroke-linejoin="round"/>
<path d="M18.5586 23.2405H31.9411" stroke="#C3D3EA" stroke-width="2" stroke-linecap="round" stroke-linejoin="round"/>
</svg>
