<svg width="50" height="50" viewBox="0 0 50 50" fill="none" xmlns="http://www.w3.org/2000/svg">
<path d="M18.7507 20.8333C21.0518 20.8333 22.9173 18.9679 22.9173 16.6667C22.9173 14.3655 21.0518 12.5 18.7507 12.5C16.4495 12.5 14.584 14.3655 14.584 16.6667C14.584 18.9679 16.4495 20.8333 18.7507 20.8333Z" stroke="#9AACCD" stroke-width="2" stroke-linecap="round" stroke-linejoin="round"/>
<path d="M27.0827 4.16675H18.7494C8.33268 4.16675 4.16602 8.33342 4.16602 18.7501V31.2501C4.16602 41.6668 8.33268 45.8334 18.7494 45.8334H31.2494C41.666 45.8334 45.8327 41.6668 45.8327 31.2501V20.8334" stroke="#9AACCD" stroke-width="2" stroke-linecap="round" stroke-linejoin="round"/>
<path d="M32.8125 10.4167H44.2708" stroke="#F35C00" stroke-width="2" stroke-linecap="round" stroke-linejoin="round"/>
<path d="M38.541 16.1458V4.6875" stroke="#F35C00" stroke-width="2" stroke-linecap="round" stroke-linejoin="round"/>
<path d="M5.5625 39.4792L15.8333 32.5834C17.4792 31.4792 19.8542 31.6042 21.3333 32.8751L22.0208 33.4792C23.6458 34.8751 26.2708 34.8751 27.8958 33.4792L36.5625 26.0417C38.1875 24.6459 40.8125 24.6459 42.4375 26.0417L45.8333 28.9584" stroke="#9AACCD" stroke-width="2" stroke-linecap="round" stroke-linejoin="round"/>
</svg>
