<svg width="20" height="20" viewBox="0 0 20 20" fill="none" xmlns="http://www.w3.org/2000/svg">
<path id="Shape" fill-rule="evenodd" clip-rule="evenodd" d="M7 0C5.89543 0 5 0.895431 5 2V4H3H1C0.447715 4 0 4.44772 0 5C0 5.55228 0.447715 6 1 6H2.10314C2.1467 6.41878 2.20032 6.9594 2.25392 7.56329C2.37844 8.96625 2.5 10.6797 2.5 12C2.5 13.8043 2.27358 16.3294 2.12555 17.7823C2.0055 18.9606 2.92687 20 4.12404 20H15.876C17.0731 20 17.9945 18.9606 17.8744 17.7823C17.7264 16.3294 17.5 13.8043 17.5 12C17.5 10.6797 17.6216 8.96625 17.7461 7.56329C17.7997 6.9594 17.8533 6.41878 17.8969 6H19C19.5523 6 20 5.55228 20 5C20 4.44772 19.5523 4 19 4H17H15V2C15 0.895431 14.1046 0 13 0H7ZM13 4V2H7V4H13ZM4.24608 7.38646C4.19989 6.86607 4.15372 6.39201 4.11372 6H15.8863C15.8463 6.39201 15.8001 6.86607 15.7539 7.38646C15.6284 8.80008 15.5 10.5866 15.5 12C15.5 13.9171 15.7369 16.5336 15.8847 17.985C15.885 17.9877 15.8849 17.989 15.8848 17.9895L15.8845 17.991L15.8836 17.9931C15.883 17.9943 15.882 17.9957 15.8807 17.9971C15.8802 17.9978 15.8796 17.9983 15.8792 17.9987C15.8789 17.999 15.8786 17.9992 15.8783 17.9994L15.8776 18L15.876 18H4.12404L4.12244 18C4.12185 17.9996 4.1207 17.9987 4.1193 17.9971C4.11709 17.9947 4.11594 17.9923 4.1155 17.991L4.11516 17.9895C4.11511 17.989 4.11498 17.9877 4.11525 17.985C4.26312 16.5336 4.5 13.9171 4.5 12C4.5 10.5866 4.37156 8.80008 4.24608 7.38646ZM8 8C8.55229 8 9 8.44771 9 9V15C9 15.5523 8.55229 16 8 16C7.44772 16 7 15.5523 7 15V9C7 8.44771 7.44772 8 8 8ZM13 9C13 8.44771 12.5523 8 12 8C11.4477 8 11 8.44771 11 9V15C11 15.5523 11.4477 16 12 16C12.5523 16 13 15.5523 13 15V9Z" fill="#CBD5E0"/>
</svg>
