<svg width="24" height="15" viewBox="0 0 24 15" fill="none" xmlns="http://www.w3.org/2000/svg">
<path id="Path" opacity="0.65" fill-rule="evenodd" clip-rule="evenodd" d="M23.4352 0.991294C23.6131 0.432129 23.4352 0.025437 22.6473 0.025437H20.0292C19.3684 0.025437 19.0634 0.381255 18.8854 0.762586C18.8854 0.762586 17.5383 4.01605 15.6573 6.12567C15.0473 6.73571 14.7677 6.93906 14.4373 6.93906C14.2594 6.93906 14.0307 6.73571 14.0307 6.17655V0.965857C14.0307 0.305019 13.8273 0 13.2681 0H9.15042C8.74373 0 8.48958 0.305019 8.48958 0.610039C8.48958 1.24551 9.43 1.39799 9.53168 3.17723V7.04073C9.53168 7.87955 9.3792 8.03202 9.04875 8.03202C8.15913 8.03202 5.99863 4.75312 4.70232 1.01673C4.4481 0.279582 4.19395 0 3.53311 0H0.889613C0.127095 0 0 0.355893 0 0.737149C0 1.42342 0.889613 4.88023 4.14308 9.45545C6.30365 12.5818 9.3792 14.2594 12.1497 14.2594C13.8273 14.2594 14.0307 13.8781 14.0307 13.2427V10.8789C14.0307 10.1163 14.1831 9.98925 14.7169 9.98925C15.0982 9.98925 15.7845 10.1925 17.3349 11.6922C19.1142 13.4714 19.4192 14.2848 20.4105 14.2848H23.0285C23.791 14.2848 24.1469 13.9036 23.9436 13.1664C23.7148 12.4293 22.8506 11.3618 21.7322 10.0908C21.1222 9.37921 20.2071 8.59126 19.9275 8.20993C19.5463 7.70164 19.648 7.4983 19.9275 7.04073C19.9022 7.04073 23.1048 2.51639 23.4352 0.991294Z" fill="#718096"/>
</svg>
