<svg width="34" height="24" viewBox="0 0 34 24" fill="none" xmlns="http://www.w3.org/2000/svg">
<g id="Frame 6037">
<path id="Path" fill-rule="evenodd" clip-rule="evenodd" d="M27.3274 5.90213C27.4893 5.39326 27.3274 5.02315 26.6103 5.02315H24.2277C23.6263 5.02315 23.3488 5.34696 23.1869 5.694C23.1869 5.694 21.9608 8.65484 20.2491 10.5747C19.6939 11.1299 19.4395 11.3149 19.1388 11.3149C18.9768 11.3149 18.7687 11.1299 18.7687 10.621V5.87899C18.7687 5.27759 18.5837 5 18.0747 5H14.3274C13.9573 5 13.726 5.27759 13.726 5.55517C13.726 6.13349 14.5818 6.27225 14.6744 7.89146V11.4075C14.6744 12.1708 14.5356 12.3096 14.2349 12.3096C13.4253 12.3096 11.4591 9.32562 10.2794 5.92528C10.048 5.25444 9.81674 5 9.21534 5H6.8096C6.11566 5 6 5.32388 6 5.67085C6 6.2954 6.8096 9.44129 9.77044 13.605C11.7367 16.4502 14.5356 17.9769 17.057 17.9769C18.5836 17.9769 18.7687 17.6299 18.7687 17.0516V14.9004C18.7687 14.2064 18.9075 14.0908 19.3933 14.0908C19.7402 14.0908 20.3648 14.2758 21.7758 15.6406C23.395 17.2598 23.6726 18 24.5747 18H26.9573C27.6512 18 27.9751 17.653 27.7901 16.9822C27.5819 16.3114 26.7954 15.3399 25.7776 14.1833C25.2224 13.5356 24.3897 12.8185 24.1352 12.4715C23.7883 12.0089 23.8808 11.8239 24.1352 11.4075C24.1121 11.4075 27.0267 7.29006 27.3274 5.90213Z" fill="#6690EB"/>
</g>
</svg>
