<svg width="16" height="17" viewBox="0 0 16 17" fill="none" xmlns="http://www.w3.org/2000/svg">
<path d="M8.00016 15.1668C11.6821 15.1668 14.6668 12.1821 14.6668 8.50016C14.6668 4.81826 11.6821 1.8335 8.00016 1.8335C4.31826 1.8335 1.3335 4.81826 1.3335 8.50016C1.3335 12.1821 4.31826 15.1668 8.00016 15.1668Z" fill="#C3CFE3" stroke="#F9FBFF" stroke-width="0.75" stroke-linecap="round" stroke-linejoin="round"/>
<path d="M5.33324 2.5H5.9999C4.6999 6.39333 4.6999 10.6067 5.9999 14.5H5.33324" fill="#C3CFE3"/>
<path d="M5.33324 2.5H5.9999C4.6999 6.39333 4.6999 10.6067 5.9999 14.5H5.33324" stroke="#F9FBFF" stroke-width="0.75" stroke-linecap="round" stroke-linejoin="round"/>
<path d="M10 2.5C11.3 6.39333 11.3 10.6067 10 14.5V2.5Z" fill="#C3CFE3"/>
<path d="M10 2.5C11.3 6.39333 11.3 10.6067 10 14.5" stroke="#F9FBFF" stroke-width="0.75" stroke-linecap="round" stroke-linejoin="round"/>
<path d="M2 11.1667V10.5C5.89333 11.8 10.1067 11.8 14 10.5V11.1667" fill="#C3CFE3"/>
<path d="M2 11.1667V10.5C5.89333 11.8 10.1067 11.8 14 10.5V11.1667" stroke="#F9FBFF" stroke-width="0.75" stroke-linecap="round" stroke-linejoin="round"/>
<path d="M2 6.4999C5.89333 5.1999 10.1067 5.1999 14 6.4999H2Z" fill="#C3CFE3"/>
<path d="M2 6.4999C5.89333 5.1999 10.1067 5.1999 14 6.4999" stroke="#F9FBFF" stroke-width="0.75" stroke-linecap="round" stroke-linejoin="round"/>
</svg>
