<svg width="24" height="24" viewBox="0 0 24 24" fill="none" xmlns="http://www.w3.org/2000/svg">
<g id="Group">
<g id="Group_2">
<path id="Vector" d="M23.986 12.3283C23.986 12.2751 23.986 12.2216 23.986 12.1682C23.986 12.0737 23.986 11.9792 23.986 11.8846C23.986 11.8317 23.986 11.7788 23.986 11.7259C23.9846 11.2997 23.9816 10.8726 23.9276 10.4499C23.7766 9.27248 23.4547 8.14274 22.9637 7.06012C22.3773 5.76782 21.5893 4.61411 20.6017 3.5979C20.0537 3.03413 19.4533 2.52961 18.8027 2.08598C17.9992 1.53792 17.1464 1.08492 16.2338 0.745728C16.182 0.72644 16.1305 0.706325 16.0734 0.717622C16.028 0.731675 15.9943 0.763363 15.9593 0.793122C15.4708 1.21085 14.9891 1.63629 14.5031 2.0565C13.8258 2.64176 13.1521 3.23115 12.4756 3.81751C11.9829 4.2446 11.4936 4.675 10.999 5.09962C10.9488 5.1426 10.8846 5.18394 10.9061 5.2688C10.9458 5.33301 11.0155 5.34844 11.0789 5.37324C12.7228 6.01994 14.3689 6.66196 16.0153 7.30233C16.128 7.34614 16.1776 7.40786 16.1765 7.53599C16.171 8.29787 16.174 9.06003 16.1734 9.82192C16.1734 9.91367 16.179 10.0054 16.1666 10.0972C16.1508 10.1556 16.0993 10.1832 16.0583 10.2176C14.7299 11.3258 13.3968 12.4289 12.0689 13.5376C11.6991 13.8465 11.3241 14.1494 10.9574 14.4618C10.899 14.5117 10.8086 14.5547 10.864 14.661C11.0376 14.7779 11.2406 14.8269 11.4316 14.9019C12.9512 15.4981 14.4744 16.0851 15.9908 16.6899C16.174 16.7629 16.174 16.7646 16.174 16.9599C16.1743 17.7397 16.1743 18.5195 16.1737 19.2993C16.1737 19.3585 16.1817 19.4192 16.1492 19.4743C16.115 19.5429 16.0492 19.5806 15.9935 19.6266C14.6094 20.766 13.2295 21.9106 11.8468 23.0517C11.5462 23.2997 11.242 23.5435 10.9475 23.7987C10.9012 23.8386 10.8215 23.8706 10.8637 23.9601C10.9397 23.999 11.0268 23.9692 11.1042 23.9995C11.1409 23.9995 11.1778 23.9995 11.2145 23.9995C11.2329 23.9825 11.2511 23.9825 11.2696 23.9995C11.3062 23.9995 11.3431 23.9995 11.3798 23.9995C11.4349 23.9778 11.49 23.9778 11.5451 23.9995C11.8391 23.9995 12.1328 23.9995 12.4269 23.9995C12.4729 23.9775 12.5186 23.9775 12.5646 23.9995C12.6106 23.9995 12.6564 23.9995 12.7024 23.9995C12.7209 23.9825 12.739 23.9825 12.7575 23.9995C12.776 23.9995 12.7942 23.9995 12.8126 23.9995C12.8454 23.9742 12.8834 23.9888 12.919 23.986C13.1882 23.9654 13.4596 23.9717 13.7274 23.9326C14.8381 23.77 15.9056 23.4609 16.929 22.9966C18.5996 22.2388 20.0272 21.1595 21.2096 19.7584C21.9365 18.897 22.5278 17.9483 22.9857 16.9178C23.6349 15.4571 24.0064 13.9353 23.986 12.3283Z" fill="#495D7C" fill-opacity="0.65"/>
<path id="Vector_2" d="M13.0934 18.505C13.1465 18.4595 13.2135 18.4102 13.1689 18.3204C13.1217 18.2653 13.0548 18.2454 12.9909 18.2206C12.7467 18.127 12.5029 18.0322 12.2587 17.9379C10.8501 17.3937 9.44376 16.844 8.03462 16.3017C7.82603 16.2216 7.82631 16.2199 7.82603 15.9929C7.82603 15.2169 7.82576 14.441 7.82631 13.665C7.82631 13.6011 7.8208 13.5364 7.84036 13.4733C7.85193 13.4289 7.89051 13.4091 7.92192 13.3834C9.35228 12.2118 10.7752 11.0314 12.2039 9.85756C12.5086 9.60709 12.8145 9.35772 13.1165 9.10394C13.1697 9.05931 13.2441 9.01605 13.1909 8.92457C13.1435 8.878 13.081 8.85898 13.0214 8.83639C12.6095 8.68043 12.2003 8.51786 11.7895 8.35942C10.5311 7.87419 9.27485 7.38371 8.01643 6.89875C7.82658 6.82546 7.82658 6.82381 7.82658 6.61852C7.82631 5.82936 7.82631 5.03992 7.82658 4.25076C7.82658 4.19124 7.82273 4.13145 7.8365 4.07221C7.88142 3.9945 7.95802 3.94904 8.02498 3.89531C9.5289 2.69283 11.0257 1.48153 12.5296 0.278774C12.5797 0.23882 12.6348 0.20355 12.6748 0.153126C12.7046 0.115651 12.7489 0.0721153 12.6781 0.0294057C12.5492 -0.00255755 12.4177 0.0211394 12.2877 0.0136996C12.232 0.0136996 12.1761 0.0136996 12.1201 0.0136996C12.0325 0.0136996 11.9446 0.0136996 11.857 0.0136996C11.8035 0.0136996 11.7501 0.0136996 11.6966 0.0136996C11.3571 0.00956645 11.0171 0.0183839 10.6801 0.0467651C10.0574 0.0991187 9.44569 0.221461 8.84169 0.385962C6.85088 0.927684 5.11632 1.92268 3.6259 3.34339C3.0095 3.93085 2.46723 4.58417 1.99302 5.2926C1.44138 6.11676 0.992238 6.99299 0.65442 7.92544C0.365373 8.72231 0.162572 9.54068 0.0553846 10.3819C0.0223192 10.6401 0.0402296 10.9019 0 11.1595C0 11.1962 0 11.2331 0 11.2697C0.0168083 11.2852 0.0129506 11.3056 0.0137773 11.3248C0.0129506 11.3441 0.0168083 11.3645 0 11.38C0 11.7382 0 12.0964 0 12.4546C0.0217681 12.5097 0.0217681 12.5648 0 12.6199C0 12.7026 0 12.7852 0 12.8679C0.0391274 13.1162 0.0214925 13.3688 0.0529047 13.6174C0.206383 14.8389 0.553846 16.0042 1.07711 17.1165C1.77947 18.6097 2.74608 19.9075 3.97749 21.007C4.96174 21.8857 6.06695 22.5751 7.27522 23.1006C7.38737 23.1493 7.49731 23.2135 7.62681 23.2094C7.7081 23.1851 7.7723 23.135 7.83513 23.0804C8.01892 22.9217 8.2005 22.7603 8.38401 22.6013C8.97258 22.091 9.56087 21.5801 10.1478 21.0681C10.7658 20.5289 11.3847 19.9905 12.0038 19.4526C12.3676 19.1371 12.7269 18.8169 13.0934 18.505Z" fill="#495D7C" fill-opacity="0.65"/>
</g>
<path id="Vector_3" d="M23.9768 12.1797C23.9768 12.0783 23.9768 11.9772 23.9768 11.8758C23.9848 11.8612 23.9922 11.8607 23.9997 11.8761C23.9997 11.9772 23.9997 12.0781 23.9997 12.1792C23.9925 12.1946 23.9848 12.1941 23.9768 12.1797Z" fill="#FDD4D4"/>
<path id="Vector_4" d="M12.1245 0.0228703C12.0325 0.0228703 11.9402 0.0228703 11.8482 0.0228703C11.8374 0.0176349 11.8338 0.0123995 11.8377 0.00743972C11.841 0.00247991 11.8446 0 11.8484 0C11.9402 0 12.0322 0 12.124 0C12.135 0.00495982 12.1386 0.00991963 12.135 0.015155C12.1317 0.0203904 12.1281 0.0228703 12.1245 0.0228703Z" fill="#FDD2D2"/>
<path id="Vector_5" d="M11.8487 0C11.8487 0.00771527 11.8485 0.015155 11.8482 0.0228703C11.7931 0.0228703 11.738 0.0228703 11.6829 0.0228703C11.6831 0.015155 11.6831 0.00771527 11.6834 0C11.7385 0 11.7936 0 11.8487 0Z" fill="#FDE6E6"/>
<path id="Vector_6" d="M12.1243 0.0228703C12.1241 0.015155 12.1238 0.00771527 12.1238 0C12.1789 0 12.234 0 12.2891 0C12.2894 0.00771527 12.2894 0.015155 12.2897 0.0228703C12.2346 0.0228703 12.1794 0.0228703 12.1243 0.0228703Z" fill="#FDE6E6"/>
<path id="Vector_7" d="M24 11.8761L23.9884 11.8755L23.9768 11.8758C23.9768 11.8207 23.9768 11.7656 23.9768 11.7102C23.9845 11.7094 23.992 11.7094 23.9997 11.7108C24 11.7659 24 11.821 24 11.8761Z" fill="#FDE5E5"/>
<path id="Vector_8" d="M23.9768 12.1796C23.9845 12.1801 23.9922 12.1798 24 12.179C24 12.2341 24 12.2892 24 12.3443L23.9884 12.3449L23.9768 12.3446C23.9768 12.2898 23.9768 12.2347 23.9768 12.1796Z" fill="#FDE9E9"/>
<path id="Vector_9" d="M0 12.4545C0.0341676 12.5096 0.0471183 12.5648 0 12.6199C0 12.5648 0 12.5096 0 12.4545Z" fill="#FD3C3C"/>
<path id="Vector_10" d="M11.3799 24C11.435 23.9529 11.4901 23.9648 11.5452 24C11.4901 24 11.435 24 11.3799 24Z" fill="#FD3737"/>
<path id="Vector_11" d="M12.4272 24.0001C12.4733 23.9659 12.519 23.9552 12.565 24.0001C12.519 24.0001 12.4733 24.0001 12.4272 24.0001Z" fill="#FD3737"/>
<path id="Vector_12" d="M0 11.27C0.0316877 11.2777 0.0259013 11.3014 0.0231458 11.3237C0.0165327 11.3427 0.00881745 11.343 0 11.3251C0 11.3066 0 11.2884 0 11.27Z" fill="#FD9797"/>
<path id="Vector_13" d="M0 11.3248C0.00771527 11.324 0.0154305 11.3235 0.0231458 11.3237C0.0275545 11.3474 0.0270034 11.3689 0 11.3799C0 11.3615 0 11.3433 0 11.3248Z" fill="#FD7777"/>
<path id="Vector_14" d="M11.2146 23.9999C11.2331 23.9594 11.2512 23.9635 11.2697 23.9999C11.2512 23.9999 11.2331 23.9999 11.2146 23.9999Z" fill="#FDA7A7"/>
<path id="Vector_15" d="M12.7029 23.9999C12.7213 23.9635 12.7395 23.9594 12.758 23.9999C12.7395 23.9999 12.7213 23.9999 12.7029 23.9999Z" fill="#FDA7A7"/>
<path id="Vector_16" d="M13.1719 18.357C12.3455 18.0346 11.5197 17.7114 10.6928 17.3903C9.7595 17.028 8.82567 16.6668 7.89047 16.3088C7.80064 16.2744 7.76647 16.2336 7.76702 16.133C7.77171 15.2708 7.76923 14.4087 7.77116 13.5465C7.77116 13.5057 7.7447 13.4547 7.79651 13.423C7.91196 13.4026 8.01171 13.4556 8.11283 13.4952C8.89869 13.8041 9.6873 14.1061 10.4726 14.4164C10.5536 14.4483 10.6357 14.4781 10.717 14.5098C10.7776 14.5335 10.835 14.5621 10.8633 14.6266C12.151 15.1276 13.4386 15.6282 14.7259 16.13C15.1905 16.311 15.6531 16.4973 16.1188 16.6761C16.2048 16.7092 16.2323 16.7525 16.2318 16.8461C16.2274 17.6995 16.2301 18.5531 16.2255 19.4065C16.2252 19.439 16.2858 19.5247 16.1767 19.5198C16.0736 19.5589 15.9882 19.4977 15.9014 19.4641C15.11 19.1582 14.3184 18.8527 13.5273 18.5452C13.4504 18.5151 13.3719 18.4895 13.2958 18.4573C13.2451 18.4358 13.1931 18.4151 13.1719 18.357Z" fill="#C4CFE0"/>
<g id="Group 1">
<path id="Vector_17" d="M13.1918 8.96017C11.6091 8.34763 10.0261 7.73537 8.44333 7.12283C8.24715 7.04678 8.05233 6.96743 7.85449 6.89551C7.7936 6.87346 7.7688 6.84674 7.7688 6.77895C7.771 5.88398 7.77018 4.98928 7.77073 4.09431C7.77073 4.06841 7.76329 4.03783 7.79746 4.02405C7.87296 4.01 7.94212 4.03342 8.011 4.06015C8.78446 4.36159 9.55709 4.66579 10.3303 4.96889C10.4755 5.02593 10.6232 5.07663 10.7665 5.1378C10.8202 5.16067 10.8816 5.17555 10.9062 5.23948C11.4749 5.46543 12.0428 5.6933 12.6126 5.9165C13.7749 6.3717 14.9379 6.82524 16.1018 7.27631C16.1941 7.31213 16.2333 7.35346 16.2327 7.46065C16.2272 8.30906 16.23 9.15746 16.2286 10.0059C16.2286 10.053 16.2517 10.1073 16.2035 10.1472C16.1376 10.1558 16.0776 10.1359 16.017 10.1125C15.1278 9.76945 14.2397 9.42391 13.3502 9.08196C13.2855 9.05716 13.2221 9.02988 13.1918 8.96017Z" fill="#C4CFE0"/>
<path id="Vector_18" d="M13.192 8.96027C14.1308 9.32481 15.0696 9.68908 16.0081 10.0545C16.0753 10.0806 16.1497 10.093 16.2037 10.1473C15.9039 10.4309 15.5769 10.6821 15.2605 10.9458C13.8266 12.1412 12.3902 13.3334 10.9551 14.5271C10.9204 14.5558 10.878 14.5786 10.8639 14.6266C9.85765 14.2337 8.85163 13.841 7.84534 13.4478C7.82853 13.4412 7.8131 13.4313 7.79712 13.4227C9.5708 11.9618 11.3445 10.5008 13.1179 9.03935C13.1457 9.01675 13.1675 8.98672 13.192 8.96027Z" fill="#95A2B6"/>
</g>
<path id="Vector_19" d="M13.1719 18.3571C14.1735 18.7448 15.1752 19.1325 16.1768 19.5199C15.9784 19.7299 15.7406 19.8938 15.5215 20.0793C15.0682 20.4631 14.6073 20.8381 14.149 21.2159C13.6591 21.6201 13.1681 22.0232 12.6782 22.4275C12.2235 22.8025 11.7691 23.1781 11.3156 23.5545C11.161 23.6826 11.0092 23.8137 10.856 23.9435C10.3658 23.9171 9.88467 23.8283 9.40605 23.7253C8.83788 23.603 8.28182 23.439 7.73955 23.2288C7.7018 23.2142 7.66653 23.1943 7.62988 23.1767C7.91893 22.9659 8.17326 22.714 8.44495 22.4829C8.84559 22.1417 9.24155 21.7951 9.63889 21.4498C9.9464 21.1826 10.252 20.9131 10.5592 20.6458C10.9599 20.2975 11.3619 19.9509 11.7622 19.6023C12.0797 19.3257 12.3971 19.0487 12.7112 18.7682C12.865 18.631 13.0364 18.5139 13.1719 18.3571Z" fill="#1C2D47"/>
<path id="Vector_20" d="M10.9066 5.23954C10.4043 5.0461 9.9014 4.8546 9.39991 4.65841C8.8648 4.44927 8.33161 4.23572 7.79761 4.02411C8.37515 3.55926 8.95269 3.09497 9.52969 2.62985C10.3062 2.00353 11.0816 1.37611 11.8586 0.750351C12.108 0.549478 12.3609 0.353014 12.6111 0.152693C12.6464 0.124587 12.6739 0.087113 12.7054 0.053772C13.3127 0.0667226 13.9098 0.162337 14.5016 0.287986C15.034 0.400959 15.5603 0.539283 16.0667 0.744013C15.9047 0.938824 15.6936 1.08045 15.5082 1.24991C15.1908 1.53924 14.8601 1.81423 14.5347 2.09529C14.1473 2.43008 13.759 2.76404 13.3724 3.09993C13.0583 3.37272 12.7467 3.64854 12.4326 3.92188C12.0394 4.26383 11.6448 4.60468 11.2505 4.94553C11.1361 5.04362 11.0209 5.14144 10.9066 5.23954Z" fill="#1C2D47"/>
</g>
</svg>
